<svg xmlns="http://www.w3.org/2000/svg" viewBox="0 0 256 256" width="256" height="256"><g shape-rendering="crispEdges" stroke="#241b17" stroke-width="4" stroke-linejoin="round"><ellipse cx="128" cy="236" rx="55" ry="10" fill="#000" opacity=".28" stroke="none"/><path d="M105 47h46l8 22-8 15h-46L97 69z" fill="#9da4ad"/><path d="M109 40l19-17 19 17 5 18h-48z" fill="#c4c9cf"/><path d="M126 24h6v49h-6z" fill="#edf0f2" stroke="none"/><path d="M106 75h44l10 21-10 22h-44L96 96z" fill="#62676c"/><path d="M103 107h50l13 78H90z" fill="#355f8c"/><path d="M101 116h54l-2 14h-50z" fill="#547da6" stroke="none"/><path d="M99 111l58 59" fill="none" stroke="#6f4a30" stroke-width="9"/><path d="M92 116l-24 62 18 9 22-52z" fill="#8d9399"/><path d="M164 116l24 62-18 9-22-52z" fill="#8d9399"/><rect x="92" y="143" width="72" height="11" fill="#6f4a30"/><path d="M106 184h20l-4 42H99z" fill="#5a4639"/><path d="M130 184h20l7 42h-23z" fill="#5a4639"/><path d="M95 225h31v14H88z" fill="#3a2a22"/><path d="M131 225h31l7 14h-38z" fill="#3a2a22"/><rect x="201" y="54" width="7" height="171" fill="#704623"/><path d="M204 18l-11 29h22z" fill="#c9ced4"/><path d="M52 116l37 8-4 70-38-12z" fill="#315985"/><path d="M68 132l7 15 14 4-12 10 1 16-12-9-14 7 4-16-10-12 16-1z" fill="#e4dcc2" stroke="none"/></g></svg>