<svg width="100" height="100" viewBox="0 0 100 100" xmlns="http://www.w3.org/2000/svg">
  <!-- Stones -->
  <ellipse cx="50" cy="80" rx="40" ry="15" fill="#424242" />
  <circle cx="20" cy="80" r="10" fill="#616161" />
  <circle cx="80" cy="80" r="10" fill="#616161" />
  <circle cx="50" cy="90" r="12" fill="#757575" />
  <!-- Logs -->
  <rect x="30" y="65" width="40" height="10" rx="5" fill="#3e2723" transform="rotate(-10 50 70)" />
  <rect x="30" y="70" width="40" height="10" rx="5" fill="#4e342e" transform="rotate(10 50 75)" />
  <!-- Fire -->
  <path d="M50 20 Q75 55 50 80 Q25 55 50 20" fill="#f44336">
    <animate attributeName="d" values="M50 20 Q75 55 50 80 Q25 55 50 20; M50 10 Q85 55 50 80 Q15 55 50 10; M50 20 Q75 55 50 80 Q25 55 50 20" dur="0.6s" repeatCount="indefinite" />
  </path>
  <path d="M50 40 Q65 60 50 80 Q35 60 50 40" fill="#ff9800">
    <animate attributeName="d" values="M50 40 Q65 60 50 80 Q35 60 50 40; M50 30 Q75 60 50 80 Q25 60 50 30; M50 40 Q65 60 50 80 Q35 60 50 40" dur="0.4s" repeatCount="indefinite" />
  </path>
  <path d="M50 55 Q58 65 50 80 Q42 65 50 55" fill="#ffeb3b">
    <animate attributeName="d" values="M50 55 Q58 65 50 80 Q42 65 50 55; M50 50 Q62 65 50 80 Q38 65 50 50; M50 55 Q58 65 50 80 Q42 65 50 55" dur="0.3s" repeatCount="indefinite" />
  </path>
</svg>
