<svg xmlns="http://www.w3.org/2000/svg" viewBox="0 0 512 512">
  <defs>
    <linearGradient id="leather" x1="0" y1="0" x2="1" y2="1"><stop offset="0" stop-color="#8b5a36"/><stop offset=".55" stop-color="#5b3725"/><stop offset="1" stop-color="#352219"/></linearGradient>
    <linearGradient id="edge" x1="0" y1="0" x2="0" y2="1"><stop offset="0" stop-color="#6d4932"/><stop offset="1" stop-color="#261a14"/></linearGradient>
    <filter id="grain" x="-10%" y="-10%" width="120%" height="120%"><feTurbulence type="fractalNoise" baseFrequency=".04" numOctaves="2" seed="7" result="n"/><feBlend in="SourceGraphic" in2="n" mode="soft-light"/></filter>
  </defs>
  <path d="M173 78c25 14 52 21 83 21s58-7 83-21l66 59-35 75-30-21v219c-54 24-114 24-168 0V191l-30 21-35-75Z" fill="url(#leather)" stroke="#241813" stroke-width="10" filter="url(#grain)"/>
  <path d="M183 91c21 27 45 40 73 40s52-13 73-40" fill="none" stroke="#2a1c15" stroke-width="13"/>
  <path d="M172 179c55 25 113 25 168 0M172 262c55 21 113 21 168 0M172 346c55 18 113 18 168 0" fill="none" stroke="#a67249" stroke-width="5" opacity=".55"/>
  <path d="M214 105l-18 302M298 105l18 302" fill="none" stroke="url(#edge)" stroke-width="15"/>
  <path d="M135 134l57 48M377 134l-57 48" stroke="#3a261c" stroke-width="15"/>
  <g fill="#9d724f" stroke="#2b1c15" stroke-width="3"><circle cx="206" cy="181" r="7"/><circle cx="306" cy="181" r="7"/><circle cx="202" cy="267" r="7"/><circle cx="310" cy="267" r="7"/><circle cx="198" cy="352" r="7"/><circle cx="314" cy="352" r="7"/></g>
  <path d="M154 405c65 26 139 26 204 0l4 34c-69 29-143 29-212 0Z" fill="#2c1d17" stroke="#17100d" stroke-width="6"/>
</svg>
