<svg width="64" height="64" viewBox="0 0 64 64" xmlns="http://www.w3.org/2000/svg">
  <!-- Body -->
  <circle cx="32" cy="35" r="15" fill="#FF4500" stroke="#8B0000" stroke-width="2"/>
  
  <!-- Head -->
  <path d="M22 25C22 18 26 15 32 15C38 15 42 18 42 25C42 32 38 35 32 35C26 35 22 32 22 25Z" fill="#FF4500" stroke="#8B0000" stroke-width="2"/>
  
  <!-- Horns -->
  <path d="M24 18L18 8L28 16Z" fill="#333" stroke="#000" stroke-width="1"/>
  <path d="M40 18L46 8L36 16Z" fill="#333" stroke="#000" stroke-width="1"/>
  
  <!-- Glowing Eyes -->
  <path d="M26 22L30 24L26 26Z" fill="#FFFF00"/>
  <path d="M38 22L34 24L38 26Z" fill="#FFFF00"/>
  
  <!-- Tail -->
  <path d="M32 50C32 50 45 55 45 45C45 35 55 35 55 35" fill="none" stroke="#FF4500" stroke-width="3" stroke-linecap="round"/>
  <path d="M55 35L50 32L50 38Z" fill="#FF4500"/>
</svg>