<svg xmlns="http://www.w3.org/2000/svg" viewBox="0 0 256 256" width="256" height="256"><g shape-rendering="crispEdges" stroke="#211d16" stroke-width="4" stroke-linejoin="round"><ellipse cx="128" cy="235" rx="45" ry="9" fill="#000" opacity=".25" stroke="none"/><path d="M91 63L44 49l36 34z" fill="#7f9144"/><path d="M165 63l47-14-36 34z" fill="#7f9144"/><path d="M82 52q46-35 92 0l5 48q-13 26-51 29-38-3-51-29z" fill="#87994a"/><path d="M94 124h68l14 62H80z" fill="#5a4432"/><path d="M102 132h52l12 21H90z" fill="#76573e" stroke="none"/><path d="M84 132l-20 48 17 8 21-42z" fill="#87994a"/><path d="M172 132l20 48-17 8-21-42z" fill="#87994a"/><path d="M98 125l60 40" fill="none" stroke="#39291f" stroke-width="10"/><path d="M158 125l-60 40" fill="none" stroke="#39291f" stroke-width="10"/><rect x="89" y="155" width="78" height="12" fill="#39291f"/><path d="M98 185h27l-5 42H91z" fill="#765137"/><path d="M131 185h27l7 42h-29z" fill="#765137"/><path d="M88 224h35v15H79z" fill="#372a22"/><path d="M133 224h35l9 15h-44z" fill="#372a22"/></g></svg>